<?xml version="1.0" encoding="UTF-8" standalone="no"?>
<svg
   version="1.1"
   viewBox="0 0 14 14"
   xml:space="preserve"
   id="svg868"
   sodipodi:docname="close.svg"
   width="14"
   height="14"
   inkscape:version="1.1.1 (c3084ef, 2021-09-22)"
   xmlns:inkscape="http://www.inkscape.org/namespaces/inkscape"
   xmlns:sodipodi="http://sodipodi.sourceforge.net/DTD/sodipodi-0.dtd"
   xmlns="http://www.w3.org/2000/svg"
   xmlns:svg="http://www.w3.org/2000/svg"><defs
     id="defs872" /><sodipodi:namedview
     id="namedview870"
     pagecolor="#ffffff"
     bordercolor="#666666"
     borderopacity="1.0"
     inkscape:pageshadow="2"
     inkscape:pageopacity="0.0"
     inkscape:pagecheckerboard="0"
     showgrid="false"
     fit-margin-top="0"
     fit-margin-left="0"
     fit-margin-right="0"
     fit-margin-bottom="0"
     inkscape:zoom="22.708333"
     inkscape:cx="6.9577982"
     inkscape:cy="6.9798165"
     inkscape:window-width="1749"
     inkscape:window-height="1073"
     inkscape:window-x="1840"
     inkscape:window-y="254"
     inkscape:window-maximized="0"
     inkscape:current-layer="svg868" /><g
     id="info"
     transform="translate(-5,-5)" /><g
     id="icons"
     transform="translate(-5,-5)"><path
       d="m 14.8,12 3.6,-3.6 c 0.8,-0.8 0.8,-2 0,-2.8 -0.8,-0.8 -2,-0.8 -2.8,0 L 12,9.2 8.4,5.6 c -0.8,-0.8 -2,-0.8 -2.8,0 -0.8,0.8 -0.8,2 0,2.8 L 9.2,12 5.6,15.6 c -0.8,0.8 -0.8,2 0,2.8 C 6,18.8 6.5,19 7,19 7.5,19 8,18.8 8.4,18.4 l 3.6,-3.6 3.6,3.6 c 0.4,0.4 0.9,0.6 1.4,0.6 0.5,0 1,-0.2 1.4,-0.6 0.8,-0.8 0.8,-2 0,-2.8 z"
       id="exit" /></g></svg>
