<?xml version="1.0" encoding="UTF-8" standalone="no"?>
<svg
   xmlns:dc="http://purl.org/dc/elements/1.1/"
   xmlns:cc="http://creativecommons.org/ns#"
   xmlns:rdf="http://www.w3.org/1999/02/22-rdf-syntax-ns#"
   xmlns:svg="http://www.w3.org/2000/svg"
   xmlns="http://www.w3.org/2000/svg"
   xmlns:sodipodi="http://sodipodi.sourceforge.net/DTD/sodipodi-0.dtd"
   xmlns:inkscape="http://www.inkscape.org/namespaces/inkscape"
   version="1.1"
   x="0px"
   y="0px"
   viewBox="0 0 100 100.00001"
   xml:space="preserve"
   id="svg8"
   sodipodi:docname="spinner.svg"
   width="100"
   height="100.00001"
   inkscape:version="1.0.2 (e86c870879, 2021-01-15)"><metadata
     id="metadata14"><rdf:RDF><cc:Work
         rdf:about=""><dc:format>image/svg+xml</dc:format><dc:type
           rdf:resource="http://purl.org/dc/dcmitype/StillImage" /><dc:title></dc:title></cc:Work></rdf:RDF></metadata><defs
     id="defs12" /><sodipodi:namedview
     pagecolor="#ffffff"
     bordercolor="#666666"
     borderopacity="1"
     objecttolerance="10"
     gridtolerance="10"
     guidetolerance="10"
     inkscape:pageopacity="0"
     inkscape:pageshadow="2"
     inkscape:window-width="3840"
     inkscape:window-height="2096"
     id="namedview10"
     showgrid="false"
     inkscape:zoom="8.064"
     inkscape:cx="47.464537"
     inkscape:cy="60.550085"
     inkscape:window-x="2560"
     inkscape:window-y="27"
     inkscape:window-maximized="1"
     inkscape:current-layer="svg8"
     fit-margin-top="0"
     fit-margin-left="0"
     fit-margin-right="0"
     fit-margin-bottom="0" /><path
     d="M 50,100 C 22.444444,100 0,77.555556 0,50 0,34.111111 7.6666666,19 20.555556,9.6666666 L 32.333333,25.777778 C 24.555556,31.444445 20,40.444445 20,50 20,66.555556 33.444445,80 50,80 66.555556,80 80,66.555556 80,50 80,33.444445 66.555556,20 50,20 H 49.888889 V 0 9.9999996 0 c 27.666667,0 50.111108,22.444444 50.111108,50 0,27.555556 -22.444441,50 -49.999997,50 z"
     id="path2"
     style="fill:#ffffff;fill-opacity:1;stroke-width:1.11111" /></svg>
